HIERARCHY
ROOT COM
{
	OFFSET 0.000000 0.000000 0.000000 
	CHANNELS 6 Xposition Yposition Zposition Zrotation Xrotation Yrotation
	JOINT Spine
	{
		OFFSET 0.000000 0.078370 -0.028498 
		CHANNELS 3 Zrotation Xrotation Yrotation
		JOINT Spine1
		{
			OFFSET 0.000000 0.111469 -0.000097 
			CHANNELS 3 Zrotation Xrotation Yrotation
			JOINT Spine2
			{
				OFFSET 0.000000 0.121511 -0.000092 
				CHANNELS 3 Zrotation Xrotation Yrotation
				JOINT Neck
				{
					OFFSET 0.000000 0.119873 -0.000040 
					CHANNELS 3 Zrotation Xrotation Yrotation
					JOINT Head
					{
						OFFSET 0.000000 0.051518 0.000000 
						CHANNELS 3 Zrotation Xrotation Yrotation
						End Site
						{
							OFFSET 0.000000 0.000000 0.000000 
						}
					}
					JOINT Leftcollar
					{
						OFFSET 0.033237 -0.012095 0.015552 
						CHANNELS 3 Zrotation Xrotation Yrotation
						JOINT LeftArm
						{
							OFFSET 0.131452 0.000000 0.000000 
							CHANNELS 3 Zrotation Xrotation Yrotation
							JOINT LeftForeArm
							{
								OFFSET 0.000000 -0.219203 0.000000 
								CHANNELS 3 Zrotation Xrotation Yrotation
								JOINT LeftHand
								{
									OFFSET 0.000000 -0.193166 0.000000 
									CHANNELS 3 Zrotation Xrotation Yrotation
									End Site
									{
										OFFSET -0.023329 -0.077705 -0.004495 
									}
								}
							}
						}
					}
					JOINT RightCollar
					{
						OFFSET -0.033237 -0.012094 0.015552 
						CHANNELS 3 Zrotation Xrotation Yrotation
						JOINT RightArm
						{
							OFFSET -0.131452 0.000000 0.000000 
							CHANNELS 3 Zrotation Xrotation Yrotation
							JOINT RightForeArm
							{
								OFFSET 0.000000 -0.219203 0.000000 
								CHANNELS 3 Zrotation Xrotation Yrotation
								JOINT RightHand
								{
									OFFSET 0.000000 -0.193166 0.000000 
									CHANNELS 3 Zrotation Xrotation Yrotation
									End Site
									{
										OFFSET 0.023329 -0.077705 -0.004495 
									}
								}
							}
						}
					}
				}
			}
		}
	}
	JOINT LeftUpLeg
	{
		OFFSET 0.077678 0.000000 0.000000 
		CHANNELS 3 Zrotation Xrotation Yrotation
		JOINT LeftLeg
		{
			OFFSET 0.000000 -0.359164 0.000000 
			CHANNELS 3 Zrotation Xrotation Yrotation
			JOINT LeftFoot
			{
				OFFSET 0.000000 -0.337214 0.000000 
				CHANNELS 3 Zrotation Xrotation Yrotation
				JOINT LeftToe
				{
					OFFSET 0.000000 0.000000 0.122098 
					CHANNELS 3 Zrotation Xrotation Yrotation
					End Site
					{
						OFFSET 0.000000 0.000000 0.000000 
					}
				}
			}
		}
	}
	JOINT RightUpLeg
	{
		OFFSET -0.077678 0.000000 0.000000 
		CHANNELS 3 Zrotation Xrotation Yrotation
		JOINT RightLeg
		{
			OFFSET 0.000000 -0.359164 0.000000 
			CHANNELS 3 Zrotation Xrotation Yrotation
			JOINT RightFoot
			{
				OFFSET 0.000000 -0.337214 0.000000 
				CHANNELS 3 Zrotation Xrotation Yrotation
				JOINT RightToe
				{
					OFFSET 0.000000 0.000000 0.122098 
					CHANNELS 3 Zrotation Xrotation Yrotation
					End Site
					{
						OFFSET 0.000000 0.000000 0.000000 
					}
				}
			}
		}
	}
}
MOTION
Frames: 11
Frame Time: 0.033333
0.152467 0.709764 -0.896453 351.926270 4.834270 4.334720 10.058100 354.938690 0.000000 360.000000 360.000000 341.982513 360.000000 360.000000 0.000000 360.000000 360.000000 0.000000 360.000000 360.000000 0.000000 360.000000 360.000000 0.000000 26.772200 345.457306 350.989441 0.000000 316.776794 0.000000 360.000000 0.000000 90.000000 360.000000 360.000000 0.000000 340.776398 23.934700 24.754601 360.000000 348.629913 0.000000 360.000000 0.000000 270.000000 12.770200 9.701980 30.338699 0.000000 38.050999 360.000000 360.000000 19.310101 343.018097 0.000000 0.000000 360.000000 13.707500 343.338593 325.875397 0.000000 5.279270 0.000000 360.000000 24.462700 27.389900 0.000000 360.000000 360.000000 
0.153660 0.714876 -0.866078 352.317810 3.483790 4.209080 9.779030 355.910980 0.000000 0.000000 360.000000 343.344788 0.000000 0.000000 0.000000 0.000000 0.000000 0.000000 0.000000 0.000000 0.000000 0.000000 0.000000 0.000000 24.879000 347.588287 348.308105 360.000000 318.193115 0.000000 0.000000 0.000000 90.000000 0.000000 0.000000 0.000000 341.633514 21.839701 28.268400 0.000000 348.749603 360.000000 360.000000 360.000000 270.000000 14.413400 5.675570 24.797100 0.000000 48.239899 360.000000 0.000000 27.085800 348.246887 360.000000 360.000000 0.000000 12.964600 346.947998 322.572205 0.000000 6.338960 360.000000 0.000000 22.483000 30.657900 0.000000 0.000000 360.000000 
0.154743 0.718911 -0.839914 352.792938 3.122570 4.940800 9.083290 356.142456 360.000000 0.000000 360.000000 344.228302 0.000000 0.000000 0.000000 0.000000 0.000000 0.000000 0.000000 0.000000 0.000000 0.000000 0.000000 0.000000 23.452900 349.702911 345.310486 0.000000 320.209198 0.000000 0.000000 0.000000 90.000000 0.000000 0.000000 0.000000 342.228394 18.791000 30.970100 360.000000 347.423096 360.000000 0.000000 0.000000 270.000000 15.167600 359.819733 20.316500 0.000000 57.177700 360.000000 0.000000 25.732800 353.950714 0.000000 0.000000 360.000000 12.479000 349.773895 320.012695 360.000000 5.761980 0.000000 0.000001 21.075899 32.682800 360.000000 360.000000 360.000000 
0.155629 0.722631 -0.812984 354.064484 1.794900 4.413040 7.664500 357.432770 360.000000 0.000000 0.000000 346.099487 360.000000 0.000000 360.000000 360.000000 0.000000 0.000000 0.000000 0.000000 0.000000 0.000000 0.000000 0.000000 22.188400 352.244843 342.639313 0.000000 322.543915 0.000000 360.000000 0.000000 90.000000 0.000000 0.000000 0.000000 342.207794 15.176700 35.655201 0.000000 345.540009 360.000000 360.000000 360.000000 270.000000 14.643400 356.051849 17.310101 360.000000 62.107101 0.000000 360.000000 20.343201 357.791992 0.000000 0.000000 0.000000 11.821800 353.913452 319.882813 360.000000 4.602960 0.000000 360.000000 19.656401 33.210602 360.000000 360.000000 0.000000 
0.156453 0.724830 -0.788297 355.218323 1.359300 3.591050 6.326300 358.068848 0.000000 0.000000 360.000000 348.060791 0.000000 0.000000 0.000000 0.000000 0.000000 0.000000 0.000000 0.000000 0.000000 0.000000 0.000000 0.000000 21.087700 355.244324 340.964600 0.000000 324.906189 0.000000 360.000000 360.000000 90.000000 0.000000 0.000000 0.000000 341.639587 10.623600 39.152000 0.000000 342.731415 360.000000 0.000000 0.000000 270.000000 13.920500 351.263397 15.311300 0.000000 64.465797 360.000000 0.000000 17.933001 0.963963 360.000000 360.000000 360.000000 10.998700 356.733398 320.508392 360.000000 4.221500 0.000000 360.000000 17.791300 33.371300 0.000000 360.000000 360.000000 
0.157136 0.725798 -0.764207 356.156799 1.398840 2.030630 5.297930 358.345978 360.000000 0.000000 360.000000 350.338806 0.000000 0.000000 0.000000 0.000000 0.000000 0.000000 0.000000 0.000000 0.000000 0.000000 0.000000 0.000000 20.030600 358.742126 340.464203 0.000000 327.430511 0.000000 360.000000 0.000000 90.000000 0.000000 0.000000 0.000000 340.645294 5.675730 40.070099 0.000000 338.987305 0.000000 360.000000 0.000000 270.000000 13.369900 346.794586 14.601100 0.000000 63.828999 360.000000 360.000000 15.843300 2.576660 0.000000 0.000000 0.000000 10.127200 358.761688 321.450592 360.000000 4.492570 0.000000 360.000000 15.924500 33.724800 0.000000 360.000000 0.000000 
0.157805 0.725756 -0.740821 356.784119 1.244440 0.671318 4.600220 358.911530 360.000000 360.000000 360.000000 352.238892 0.000000 360.000000 360.000000 0.000000 0.000000 0.000000 0.000000 360.000000 360.000000 0.000000 360.000000 360.000000 19.095800 2.029920 340.544312 0.000000 330.640991 0.000000 360.000000 0.000000 90.000000 0.000000 360.000000 360.000000 339.470306 0.615485 39.156898 360.000000 334.844086 360.000000 360.000000 360.000000 270.000000 12.875400 342.691589 13.654300 0.000000 61.076900 360.000000 0.000000 13.787500 3.069920 360.000000 360.000000 360.000000 9.371790 0.696632 322.288086 0.000000 5.275770 360.000000 360.000000 13.867200 33.960201 0.000000 0.000000 360.000000 
0.158906 0.724937 -0.718176 357.307251 1.428880 359.541107 4.032370 359.288513 0.000000 0.000000 0.000000 353.782013 360.000000 0.000000 0.000000 360.000000 360.000000 0.000000 360.000000 0.000000 0.000000 360.000000 0.000000 0.000000 18.330000 5.175730 340.361115 360.000000 334.354401 0.000000 0.000000 0.000000 90.000000 360.000000 0.000000 0.000000 338.141907 355.683502 36.476601 0.000000 330.402313 0.000000 360.000000 0.000000 270.000000 12.459100 339.004791 13.657800 360.000000 55.778198 0.000000 0.000000 11.888500 3.439260 0.000000 0.000000 360.000000 8.504020 2.081390 323.162903 0.000000 6.286150 360.000000 0.000000 11.735400 34.235001 360.000000 360.000000 0.000000 
0.160700 0.723732 -0.694548 357.885773 1.759730 358.458435 3.483730 359.375671 0.000000 360.000000 0.000000 355.097046 0.000000 0.000000 0.000000 360.000000 0.000000 360.000000 0.000000 0.000000 0.000000 0.000000 0.000000 0.000000 17.601400 8.021070 340.805695 0.000000 338.810699 0.000000 360.000000 0.000000 90.000000 0.000000 0.000000 0.000000 336.488190 351.172119 34.048500 360.000000 325.895599 360.000000 0.000000 0.000000 270.000000 11.802100 336.156403 14.508500 0.000000 48.273800 360.000000 360.000000 11.152700 3.784100 0.000000 0.000000 360.000000 7.659510 3.539450 324.389313 360.000000 6.808280 360.000000 0.000001 9.863070 33.915001 0.000000 0.000000 0.000000 
0.162590 0.721944 -0.671344 358.450775 2.684360 357.660431 2.951440 358.922089 360.000000 0.000000 360.000000 355.969879 0.000000 360.000000 0.000000 360.000000 360.000000 360.000000 360.000000 360.000000 360.000000 360.000000 360.000000 360.000000 17.178301 10.951300 340.621399 360.000000 342.428101 0.000000 0.000000 0.000000 90.000000 360.000000 360.000000 360.000000 334.706390 346.954102 31.468901 360.000000 321.673401 360.000000 0.000000 0.000000 270.000000 10.997200 333.783691 16.587400 0.000000 38.584801 0.000000 360.000000 11.373800 3.072530 0.000000 0.000000 0.000000 6.748290 4.203020 326.043915 360.000000 7.652750 360.000000 0.000000 7.892310 33.063499 360.000000 360.000000 0.000000 
0.164361 0.719854 -0.646435 358.791687 3.579900 356.368103 2.676550 358.385498 0.000000 360.000000 0.000000 357.403290 360.000000 360.000000 360.000000 0.000000 360.000000 360.000000 0.000000 360.000000 360.000000 0.000000 360.000000 360.000000 16.785400 13.444100 341.499298 360.000000 346.029999 360.000000 0.000000 0.000000 90.000000 0.000000 360.000000 360.000000 332.924011 343.365295 28.824600 0.000000 318.253296 0.000000 360.000000 0.000000 270.000000 10.223400 333.084198 21.162500 0.000000 26.367300 360.000000 0.000000 14.032400 358.765808 0.000000 0.000000 0.000000 6.011360 5.206640 327.075989 0.000000 8.054740 0.000000 0.000000 6.603080 33.278500 0.000000 360.000000 360.000000 
